<?xml version="1.0" encoding="UTF-8" standalone="no"?>
<!-- Created with Inkscape (http://www.inkscape.org/) -->

<svg
   version="1.1"
   id="svg1"
   width="189.57832"
   height="67.754021"
   viewBox="0 0 189.57832 67.754021"
   xmlns="http://www.w3.org/2000/svg"
   xmlns:svg="http://www.w3.org/2000/svg">
  <defs
     id="defs1" />
  <g
     id="g1"
     transform="translate(-21.038483,-452.75957)">
    <g
       id="group-R5">
      <path
         id="path189"
         d="m 193.15952,454.72664 c -3.82411,-1.37738 -7.89908,-1.96265 -11.02792,-1.96707 -1.74703,0.003 -3.18164,0.23334 -4.41822,0.51487 l -0.45764,-0.003 c -0.41368,0.16733 -0.74812,0.35206 -1.12216,0.49286 -1.98908,0.72171 -3.08484,1.55342 -3.08484,1.55342 l 0.0924,0.0396 c -4.81428,3.17725 -6.91776,7.8771 -6.91776,10.86949 0.01,4.26862 2.37194,6.94859 2.37194,6.94859 -1.66785,-0.29473 -4.05296,-2.0683 -4.05296,-7.25662 0,-6.29727 4.88025,-10.39423 8.66479,-12.63415 h -5.42596 l -17.56283,2.59195 7.25221,1.17496 -2.65797,2.20913 3.63051,1.35098 c 0,0 -2.23992,0.73491 -4.03977,0.73491 -1.80865,0 -6.20486,-1.62382 -9.32049,-5.74279 0,0 -1.23658,-1.98909 -1.88347,-2.33234 l -0.0165,0.003 c 0,0 2.09466,9.98501 11.90362,9.98501 4.39183,0.01 8.98168,-3.98696 8.98168,-3.98696 0,0 -1.24978,3.99574 -1.24978,7.54264 -0.01,3.56449 3.11124,10.63186 10.02457,7.09377 0,0 -3.96932,-6.65811 -0.21123,-10.64067 3.75814,-3.99135 16.27347,-5.99802 23.38044,0.21552 7.085,6.23126 3.76253,20.63884 -4.38739,23.06798 l -0.003,0.23334 c 8.14553,2.43795 11.49437,16.85435 4.39178,23.0636 -7.09377,6.20486 -19.6399,4.21581 -23.39803,0.20694 -3.73612,-4.00016 0.22872,-10.63629 0.22872,-10.63629 -6.91333,-3.53809 -10.03339,3.56011 -10.02457,7.10259 0,3.53809 1.25856,7.54266 1.25856,7.54266 0,0 -4.59863,-3.99576 -8.99046,-3.98256 -9.80014,-0.0297 -11.90362,9.96299 -11.90362,9.96299 l 0.0165,0.003 c 0.62048,-0.33885 1.85707,-2.32791 1.85707,-2.32791 3.14203,-4.09699 7.54702,-5.73401 9.34689,-5.73401 1.80424,0.01 4.01337,0.7525 4.01337,0.7525 l -3.60411,1.30698 2.64037,2.23553 -7.23461,1.17497 17.57165,2.59194 h 5.41714 c -3.79774,-2.24431 -8.66479,-6.34569 -8.66479,-12.64296 0,-5.17951 2.36751,-6.95294 4.04415,-7.24338 0,0 -2.35432,2.66235 -2.35432,6.95736 0,2.9484 2.06827,7.62624 6.86495,10.82989 l -0.0353,0.0165 c 0,0 0.94172,0.75693 2.74159,1.43461 0.47965,0.22444 0.92852,0.46207 1.4522,0.6425 l 0.60728,-0.0132 c 1.19695,0.29473 2.58756,0.48405 4.26858,0.48405 3.01441,0.0132 6.90456,-0.53685 10.60546,-1.80423 0.54128,-0.16733 1.07377,-0.36087 1.57983,-0.5589 0.58527,-0.24192 1.13536,-0.50606 1.67663,-0.77448 6.73733,-3.32248 10.46024,-9.38212 10.45146,-15.95224 0.0165,-10.2798 -4.23339,-14.21837 -4.86269,-14.76403 0.6425,-0.55448 4.86269,-4.4842 4.88029,-14.75083 -0.0165,-5.34236 -2.49515,-10.32822 -7.01457,-13.82232 l 0.01,-0.0132 c -0.0264,-0.0231 -0.0571,-0.0231 -0.0967,-0.0571 -0.97254,-0.70851 -1.97146,-1.3686 -3.09362,-1.95829 -0.7789,-0.41365 -1.56662,-0.76571 -2.38075,-1.09133 -0.25083,-0.0703 -0.48404,-0.15842 -0.7261,-0.24193 z m -76.15255,29.72613 c 0,0 -1.18378,2.1783 -3.17283,2.52594 1.98905,0.38724 3.17722,2.56555 3.17722,2.56555 0.37846,-1.66782 2.62716,-2.56116 2.62716,-2.56116 0,0 -2.2487,-0.85812 -2.63155,-2.53033 z m 82.35302,35.30169 c 2.18711,-0.55447 5.1267,-3.10685 6.06403,-4.20699 3.22567,-4.01775 5.19274,-9.30729 5.19274,-15.09408 0.01,-5.32034 -1.72505,-10.17422 -4.51502,-14.02477 l 0.0353,-0.0165 c -0.01,0 -0.01,0 -0.0353,0 0.01,-0.0132 0.0264,-0.0132 0.0353,-0.0396 l -0.0571,0.0264 c 2.81199,-3.85493 4.55463,-8.71321 4.52823,-14.02473 0,-5.79999 -1.95387,-11.08515 -5.18393,-15.09851 -0.94611,-1.11773 -3.86814,-3.66568 -6.05083,-4.22897 -2.22229,-0.54128 -0.95053,0.45325 -0.95053,0.45325 2.82519,1.55782 5.51398,4.69107 5.51398,4.69107 3.10243,3.72292 5.01227,8.70001 5.01227,14.16996 0,5.1663 -1.74703,9.81777 -4.57661,13.47025 l -0.43127,0.59847 0.43127,0.56329 c 2.82958,3.6481 4.58981,8.27755 4.58981,13.47026 0,5.46998 -1.92304,10.45146 -5.03868,14.17876 0,0 -2.69317,3.12884 -5.53598,4.68226 0,0 -1.23655,0.99453 0.97254,0.43127 z m -81.95258,-38.86179 c 0.92413,4.00896 6.25328,6.10806 6.25328,6.10806 0,0 -5.32915,2.09466 -6.25328,6.09043 0,0 -2.82519,-5.20591 -7.62184,-6.09925 4.79665,-0.88452 7.62184,-6.09924 7.62184,-6.09924 z m 29.19367,1.07816 0.6997,-0.73491 0.68649,0.71732 v 9.63291 l -0.68649,0.73049 -0.6997,-0.73488 z m 28.95162,4.86266 c 0,-3.65248 2.79437,-6.6361 6.25325,-6.6493 1.31579,0.01 2.43795,0.52365 3.41488,1.22335 l -1.5226,-0.32114 c -3.01444,-0.003 -5.43915,2.57875 -5.43915,5.7692 0,3.19485 2.42471,5.78241 5.43915,5.74719 l 1.5226,-0.31684 c -0.97693,0.69969 -2.09909,1.20136 -3.41488,1.22338 -3.45888,0 -6.26206,-2.97484 -6.25325,-6.67574 z m 6.79013,2.64476 c -1.37738,-0.003 -2.47313,-1.17936 -2.49075,-2.62274 0,-1.46983 1.11337,-2.63598 2.47316,-2.63156 1.37299,0 2.48633,1.17493 2.49515,2.61393 -0.01,1.46101 -1.12216,2.64037 -2.47756,2.64037 z M 128.83581,471.5634 c -1.11334,-1.68984 -2.81638,-2.61396 -4.79227,-2.59637 -2.70198,-0.01 -4.70424,1.76465 -5.712,4.24217 v -0.29044 c -3.79331,9.91458 -10.9091,12.27331 -14.80803,12.82779 l -76.007347,-0.0835 -0.38285,0.0132 -2.34112,-0.01 v 0.0924 c -2.1915,0.14951 -3.75371,0.50606 -3.75371,0.91971 0.01,0.54127 2.81199,0.98575 6.26645,0.99456 1.4522,-0.01 2.68439,-0.10133 3.76252,-0.22014 l 72.508867,0.066 c 3.94292,0.56768 10.97072,2.95721 14.75522,12.78376 v -0.25084 c 1.00776,2.47756 3.01883,4.21581 5.712,4.2334 1.97589,0.0165 3.69213,-0.89333 4.77468,-2.61396 1.09575,-1.73825 1.11334,-4.69546 0.36523,-6.79894 -0.70848,-2.09028 -0.61168,-0.10133 -0.61168,-0.10133 0.30364,3.65252 -1.12215,6.03766 -1.12215,6.03766 -0.77452,1.18374 -1.94506,1.68102 -3.40608,1.72063 -2.81637,-0.0353 -4.68665,-2.42033 -4.72625,-5.92762 -0.0967,-8.73961 10.54826,-9.00804 10.59668,-9.01246 v -0.0353 l 15.56496,0.003 v 5.26314 c 0,0.78769 0.59408,1.42138 1.34216,1.42138 h 4.29502 c 0.73049,0 1.33777,-0.63369 1.33777,-1.42138 v -5.26314 l 22.10869,0.0439 c 0.38724,3.94296 3.42366,7.0806 7.24338,7.08938 4.07936,0 7.39302,-3.52489 7.39302,-7.86829 0,-4.30819 -3.29164,-7.82426 -7.39302,-7.83746 -3.7185,0.01 -6.68013,3.0144 -7.17738,6.82973 l -22.17469,-0.0231 v -4.91986 c 0,-0.37404 -0.14522,-0.7393 -0.39605,-1.00773 -0.24193,-0.25975 -0.59409,-0.41368 -0.94172,-0.41368 l -4.30822,0.01 c -0.73488,0 -1.32896,0.63808 -1.32896,1.42141 v 4.91105 l -15.55618,-0.0231 -0.01,-0.1099 c -0.0485,-0.003 -10.69349,-0.26404 -10.59668,-9.01243 0.0396,-3.5205 1.90987,-5.92762 4.72625,-5.94521 1.46102,0.0485 2.63156,0.55005 3.40607,1.74703 0,0 1.4258,2.39834 1.12216,6.02442 0,0 -0.0881,2.00229 0.61167,-0.0792 0.75693,-2.14308 0.73053,-5.10029 -0.34763,-6.83412"
         style="fill:#000000;fill-opacity:1;fill-rule:nonzero;stroke:none;stroke-width:0.44006" />
    </g>
  </g>
</svg>
