<?xml version="1.0" encoding="UTF-8" standalone="no"?>
<!-- Created with Inkscape (http://www.inkscape.org/) -->

<svg
   version="1.1"
   id="svg1"
   width="228.0307"
   height="103.85867"
   viewBox="0 0 228.0307 103.85867"
   xmlns="http://www.w3.org/2000/svg"
   xmlns:svg="http://www.w3.org/2000/svg">
  <defs
     id="defs1" />
  <g
     id="g1"
     transform="translate(-3.1572933,0.00131553)">
    <g
       id="group-R5">
      <path
         id="path17"
         d="m 29.1289,3560.77 h 46.1524 v 10.93 c 0,0 -32.2071,0 -40.6758,0 0,3.62 0,83.5 0,188.04 8.2812,16.96 26.5937,47.13 57.6758,63.9 -25.1368,18.34 -46.3868,39.05 -57.6758,64.48 0,17.16 0,34.46 0,51.67 9.3945,2.43 16.3789,10.92 16.3789,21.05 0,10.22 -6.9844,18.66 -16.3789,21.1 0,99.38 0,191.81 0,244.02 6.5547,13.75 19.6484,34.16 41.8867,43.92 34.7928,0 89.6558,0 158.7068,0 -151.8513,-44.32 -169.7615,-169 -171.4529,-209.21 -3.0078,-71.1 41.5159,-175.79 143.9649,-210.79 l -0.117,-0.29 c 1.496,-0.62 17.656,-7.35 46.094,-11.79 0.363,-12.79 3.281,-22.37 7.453,-22.6 4.004,-0.23 7.898,8.38 9.785,20.39 38.523,-3.84 93.308,-2.49 160.738,17.43 58.137,17.15 127.055,53.2 200.051,91.38 98.301,51.37 199.973,104.55 285.527,117.01 105.038,15.27 165.668,-8.62 187.368,-36.05 4.31,-5.47 7.2,-11.21 8.81,-17.13 -0.32,-6.01 -2.39,-11.37 -8.45,-12.76 -9.76,-1.79 -14,7.89 -14.59,16.4 -7.3,8.49 -35.81,-3.01 -30.36,-30.99 5.47,-27.91 37.04,-28.5 51.01,-20.6 13.72,7.75 30.02,37.8 3.41,70.1 -0.5,0.57 -0.83,1.19 -1.25,1.78 -30.58,38.64 -104.39,53.57 -197.542,40.04 -87.378,-12.68 -189.878,-66.29 -289.031,-118.13 -72.469,-37.91 -140.937,-73.71 -198.047,-90.56 -28.054,-8.28 -53.906,-13.21 -77.273,-15.87 15.113,4.36 29.844,10.06 43.887,17.23 21.004,9.73 96.777,47.88 179.902,127.87 79.656,76.74 163.609,129.63 256.617,161.8 95.473,33.01 245.367,34.3 246.867,34.34 v 0.04 c 23.96,-0.11 46.03,-0.22 65.19,-0.38 156.76,-1.21 174.89,-18.37 180.56,-37.36 1.95,-6.43 1.64,-11.83 0.36,-16.2 -1.19,-1.14 -2.65,-2 -4.58,-2.4 -9.39,-1.78 -13.49,7.58 -14.07,15.78 -7.01,8.18 -34.54,-2.95 -29.26,-29.88 5.25,-26.91 35.7,-27.5 49.16,-19.92 13.31,7.54 29.05,36.71 3.01,67.96 -15.24,21.07 -57.53,31.98 -185.08,32.98 -156.083,1.18 -504.126,0 -507.614,0 h -11.504 c 17.141,-6.98 29.219,-23.79 29.219,-43.44 0,-25.92 -20.957,-46.89 -46.848,-46.89 -25.894,0 -46.863,20.97 -46.863,46.89 0,19.65 12.078,36.46 29.23,43.44 H 433.285 l 12.629,-9.81 c 0.652,-0.53 66.945,-53.06 63.457,-147.28 -1.738,-46.81 -27.937,-96.98 -70.129,-134.25 -15.086,-13.37 -31.57,-24.58 -49.019,-33.54 -3.11,-1.39 -4.864,-2.14 -4.985,-2.17 l 0.09,-0.23 c -34.851,-16.82 -73.469,-24.74 -113.262,-23.03 0.262,14.75 -2.863,26.36 -7.461,26.62 -4.558,0.28 -8.925,-10.72 -10.441,-25.24 -127.762,15.22 -182.7499,132.98 -179.5195,209.66 1.7383,40.88 21.1719,173.57 195.8595,206.87 -54.824,-17.41 -132.352,-59.65 -149.922,-161.1 -6.387,-40.75 7.195,-85.96 36.301,-121.09 28.222,-34 66.68,-53.41 108.238,-54.67 42.434,-1.29 79.856,14.75 105.324,45.22 24.102,28.87 34.121,66.84 26.778,101.59 -7.11,33.6 -25.215,60.12 -50.965,74.68 -25.617,14.45 -57.563,16.22 -90.051,4.94 -39.414,-13.67 -52.578,-52 -48.164,-83.91 2.793,-20.53 12.473,-36.53 25.664,-44.4 23.469,-18.2 57.5,-6.51 66.609,11.31 7.278,14.31 6.282,45.69 -21.777,50.51 -28.047,4.82 -38.934,-23.9 -30.281,-31.04 8.515,-0.4 18.308,-4.47 16.711,-14.19 -2.102,-10.12 -15.246,-9.61 -24.555,-7.91 -12.156,6.42 -19.473,22 -21.578,37.23 -3.781,27.47 7.422,60.46 40.953,72.05 29.902,10.4 57.934,8.95 81.074,-4.1 23.008,-12.97 39.231,-36.93 45.657,-67.43 6.691,-31.5 -2.461,-66.03 -24.473,-92.31 -23.262,-27.84 -57.578,-42.52 -96.594,-41.34 -38.394,1.17 -73.965,19.18 -100.144,50.73 -27.157,32.75 -39.844,74.74 -33.954,112.34 26.258,151.3 194.532,163.75 196.211,163.91 l -0.121,1.76 c 58.672,0 123.633,0 192.551,0 1.516,-14.63 13.738,-26.11 28.84,-26.11 15.047,0 27.266,11.48 28.836,26.11 288.777,0 632.108,0 869.258,0 19.73,-8.09 49.74,-24.77 70.85,-56.46 19.63,30.61 53.39,47.99 74.86,56.46 87.84,0 141.27,0 141.27,0 v 10.94 h -134.86 c -20.5,7.34 -59.53,24.99 -81.27,58.89 -23.51,-35.3 -58.08,-51.97 -77.13,-58.89 H 576.742 c -3.433,12.24 -14.566,21.25 -27.906,21.25 -13.383,0 -24.484,-9.01 -27.941,-21.25 H 23.6797 v -720.05 h 5.4492"
         style="fill:#000000;fill-opacity:1;fill-rule:nonzero;stroke:none"
         transform="matrix(0.13333333,0,0,-0.13333333,0,578.62667)" />
    </g>
  </g>
</svg>
