<?xml version="1.0" encoding="UTF-8" standalone="no"?>
<!-- Created with Inkscape (http://www.inkscape.org/) -->

<svg
   version="1.1"
   id="svg1"
   width="228.032"
   height="103.85867"
   viewBox="0 0 228.032 103.85867"
   xmlns="http://www.w3.org/2000/svg"
   xmlns:svg="http://www.w3.org/2000/svg">
  <defs
     id="defs1" />
  <g
     id="g1"
     transform="translate(-678.46665,0.00131553)">
    <g
       id="group-R5">
      <path
         id="path16"
         d="m 6793.29,3560.77 h -46.15 v 10.93 c 0,0 32.2,0 40.67,0 0,3.62 0,83.5 0,188.04 -8.28,16.96 -26.59,47.13 -57.68,63.9 25.14,18.34 46.39,39.05 57.68,64.48 0,17.16 0,34.46 0,51.67 -9.4,2.43 -16.38,10.92 -16.38,21.05 0,10.22 6.98,18.66 16.38,21.1 0,99.38 0,191.81 0,244.02 -6.55,13.75 -19.65,34.16 -41.89,43.92 -34.79,0 -89.65,0 -158.71,0 151.86,-44.32 169.77,-169 171.46,-209.21 3.01,-71.1 -41.52,-175.79 -143.97,-210.79 l 0.12,-0.29 c -1.49,-0.62 -17.66,-7.35 -46.09,-11.79 -0.36,-12.79 -3.28,-22.37 -7.45,-22.6 -4.01,-0.23 -7.9,8.38 -9.79,20.39 -38.52,-3.84 -93.31,-2.49 -160.74,17.43 -58.14,17.15 -127.05,53.2 -200.05,91.38 -98.3,51.37 -199.97,104.55 -285.53,117.01 -105.04,15.27 -165.66,-8.62 -187.36,-36.05 -4.32,-5.47 -7.21,-11.21 -8.82,-17.13 0.32,-6.01 2.39,-11.37 8.46,-12.76 9.75,-1.79 13.99,7.89 14.59,16.4 7.29,8.49 35.81,-3.01 30.36,-30.99 -5.48,-27.91 -37.04,-28.5 -51.02,-20.6 -13.72,7.75 -30.02,37.8 -3.41,70.1 0.5,0.57 0.83,1.19 1.25,1.78 30.58,38.64 104.4,53.57 197.54,40.04 87.39,-12.68 189.89,-66.29 289.04,-118.13 72.47,-37.91 140.93,-73.71 198.04,-90.56 28.06,-8.28 53.91,-13.21 77.28,-15.87 -15.12,4.36 -29.84,10.06 -43.89,17.23 -21,9.73 -96.77,47.88 -179.9,127.87 -79.66,76.74 -163.61,129.63 -256.62,161.8 -95.47,33.01 -245.36,34.3 -246.87,34.34 v 0.04 c -23.95,-0.11 -46.02,-0.22 -65.18,-0.38 -156.77,-1.21 -174.89,-18.37 -180.57,-37.36 -1.94,-6.43 -1.64,-11.83 -0.36,-16.2 1.19,-1.14 2.66,-2 4.58,-2.4 9.4,-1.78 13.5,7.58 14.07,15.78 7.01,8.18 34.54,-2.95 29.26,-29.88 -5.24,-26.91 -35.69,-27.5 -49.16,-19.92 -13.31,7.54 -29.04,36.71 -3.01,67.96 15.25,21.07 57.53,31.98 185.08,32.98 156.09,1.18 504.13,0 507.62,0 h 11.5 c -17.14,-6.98 -29.22,-23.79 -29.22,-43.44 0,-25.92 20.96,-46.89 46.85,-46.89 25.9,0 46.86,20.97 46.86,46.89 0,19.65 -12.08,36.46 -29.22,43.44 h 156.19 l -12.63,-9.81 c -0.65,-0.53 -66.94,-53.06 -63.46,-147.28 1.74,-46.81 27.94,-96.98 70.13,-134.25 15.09,-13.37 31.57,-24.58 49.02,-33.54 3.11,-1.39 4.87,-2.14 4.98,-2.17 l -0.08,-0.23 c 34.85,-16.82 73.46,-24.74 113.26,-23.03 -0.27,14.75 2.86,26.36 7.46,26.62 4.56,0.28 8.92,-10.72 10.44,-25.24 127.76,15.22 182.75,132.98 179.52,209.66 -1.74,40.88 -21.17,173.57 -195.86,206.87 54.82,-17.41 132.35,-59.65 149.92,-161.1 6.39,-40.75 -7.19,-85.96 -36.3,-121.09 -28.22,-34 -66.68,-53.41 -108.24,-54.67 -42.43,-1.29 -79.85,14.75 -105.32,45.22 -24.1,28.87 -34.12,66.84 -26.78,101.59 7.11,33.6 25.22,60.12 50.97,74.68 25.61,14.45 57.56,16.22 90.05,4.94 39.41,-13.67 52.58,-52 48.16,-83.91 -2.79,-20.53 -12.47,-36.53 -25.66,-44.4 -23.47,-18.2 -57.5,-6.51 -66.61,11.31 -7.28,14.31 -6.28,45.69 21.77,50.51 28.05,4.82 38.94,-23.9 30.29,-31.04 -8.52,-0.4 -18.31,-4.47 -16.71,-14.19 2.1,-10.12 15.24,-9.61 24.55,-7.91 12.16,6.42 19.47,22 21.58,37.23 3.78,27.47 -7.42,60.46 -40.96,72.05 -29.9,10.4 -57.93,8.95 -81.07,-4.1 -23.01,-12.97 -39.23,-36.93 -45.66,-67.43 -6.68,-31.5 2.47,-66.03 24.48,-92.31 23.26,-27.84 57.58,-42.52 96.59,-41.34 38.4,1.17 73.96,19.18 100.15,50.73 27.15,32.75 39.84,74.74 33.95,112.34 -26.26,151.3 -194.53,163.75 -196.21,163.91 l 0.12,1.76 c -58.67,0 -123.64,0 -192.55,0 -1.52,-14.63 -13.74,-26.11 -28.84,-26.11 -15.05,0 -27.27,11.48 -28.84,26.11 -288.78,0 -632.11,0 -869.26,0 -19.72,-8.09 -49.73,-24.77 -70.84,-56.46 -19.63,30.61 -53.39,47.99 -74.87,56.46 -87.84,0 -141.27,0 -141.27,0 v 10.94 h 134.87 c 20.49,7.34 59.53,24.99 81.27,58.89 23.5,-35.3 58.07,-51.97 77.12,-58.89 h 863.91 c 3.44,12.24 14.57,21.25 27.91,21.25 13.38,0 24.48,-9.01 27.94,-21.25 h 497.22 v -720.05 h -5.45"
         style="fill:#000000;fill-opacity:1;fill-rule:nonzero;stroke:none"
         transform="matrix(0.13333333,0,0,-0.13333333,0,578.62667)" />
    </g>
  </g>
</svg>
