<?xml version="1.0" encoding="UTF-8" standalone="no"?>
<!-- Created with Inkscape (http://www.inkscape.org/) -->

<svg
   version="1.1"
   id="svg1"
   width="205.79118"
   height="68.855316"
   viewBox="0 0 205.79118 68.855316"
   xmlns="http://www.w3.org/2000/svg"
   xmlns:svg="http://www.w3.org/2000/svg">
  <defs
     id="defs1" />
  <g
     id="g1"
     transform="translate(-18.987467,-363.47937)">
    <g
       id="group-R5">
      <path
         id="path183"
         d="m 200.027,1556.37 c 21.164,0 38.309,-17.39 38.309,-38.83 0,-21.42 -17.145,-38.81 -38.309,-38.81 -21.144,0 -38.297,17.39 -38.297,38.81 0,21.44 17.153,38.83 38.297,38.83 z m -1.691,-84.06 c 30.879,0 55.918,25.88 55.918,57.78 0,31.92 -25.039,57.79 -55.918,57.79 -30.879,0 -55.93,-25.87 -55.93,-57.79 0,-31.9 25.051,-57.78 55.93,-57.78"
         style="fill:#000000;fill-opacity:1;fill-rule:nonzero;stroke:none"
         transform="matrix(0.13333333,0,0,-0.13333333,0,578.62667)" />
      <path
         id="path184"
         d="m 1653.49,1218.73 c 15.32,0 27.75,-12.24 27.75,-27.39 0,-15.11 -12.43,-27.34 -27.75,-27.34 -15.32,0 -27.75,12.23 -27.75,27.34 0,15.15 12.43,27.39 27.75,27.39 z m -8.96,-68.56 c 22.82,0 41.31,17.88 41.31,39.97 0,22.08 -18.49,40 -41.31,40 -22.82,0 -41.31,-17.92 -41.31,-40 0,-22.09 18.49,-39.97 41.31,-39.97"
         style="fill:#000000;fill-opacity:1;fill-rule:nonzero;stroke:none"
         transform="matrix(0.13333333,0,0,-0.13333333,0,578.62667)" />
      <path
         id="path185"
         d="m 179.668,1419.83 -10.094,7.31 2.379,-12.22 c 38.527,-197.16 266.996,-239.85 321.485,-239.85 h 669.812 c 1.19,-12.35 11.94,-22.1 25.16,-22.1 13.23,0 23.98,9.75 25.17,22.1 h 189.09 c 8.32,-2 17.36,-5.06 26,-9.78 27.34,-14.91 40.26,-20.87 78.54,-23.33 38.28,-2.52 55.17,-44.77 55.17,-44.77 0,0 13.93,28.36 -7.95,45.23 -13.78,10.68 -19.07,22.32 -21.1,29.47 -4.68,-9.1 -16.11,-15.56 -29.52,-15.56 -17.57,0 -31.82,11.05 -31.82,24.71 0,13.62 14.25,24.68 31.82,24.68 14.36,0 26.36,-7.43 30.31,-17.56 2.53,7.19 8.05,17.43 20.31,26.91 21.88,16.91 7.95,45.24 7.95,45.24 0,0 -16.89,-42.26 -55.17,-44.74 -38.28,-2.49 -51.2,-8.46 -78.54,-23.37 -5.71,-3.11 -11.59,-5.44 -17.33,-7.29 h -198.93 c -3.35,9.66 -12.77,16.68 -24,16.68 -11.22,0 -20.64,-7.02 -23.99,-16.68 H 493.438 c -51.829,0 -265.415,40 -308.958,221.09 9.692,-4.47 25.18,-9.34 43.508,-6.4 20.332,3.23 38.727,15.65 55,36.04 17.418,-29.72 101.508,-156.46 269.375,-157.9 33.535,-0.3 62.418,3.4 87.492,9.8 6.672,-0.07 54.629,0.91 127.719,38.21 24.528,12.53 54.617,32.01 86.489,52.61 71.023,45.97 151.517,98.04 219.987,109.08 91.23,14.71 150.53,-7.97 171.51,-65.61 10.16,-27.99 5.85,-59.74 -11,-80.88 -12.55,-15.74 -30.05,-23.08 -49.3,-20.66 -18.87,2.35 -32.51,8.86 -40.52,19.35 -2.49,3.27 -4.19,6.64 -5.4,9.9 0.11,12.69 4.22,12.42 4.22,12.42 0,0 7.71,-17.15 24.58,-10 16.87,7.15 19.16,31.16 4.86,41.18 -14.29,10 -49.13,4.01 -47.45,-24.6 0.49,-8.28 1.83,-14.47 3.52,-19.17 1.46,-5.06 3.86,-10.44 7.86,-15.71 9.68,-12.64 25.52,-20.42 47.1,-23.14 22.78,-2.86 43.44,5.77 58.19,24.29 18.96,23.76 23.88,59.25 12.58,90.39 -22.47,61.71 -87.21,87.29 -182.31,71.93 -70.53,-11.35 -151.935,-64.04 -223.771,-110.5 -31.645,-20.47 -61.535,-39.82 -85.617,-52.1 -29.61,-15.14 -55.008,-24.03 -75.036,-29.35 85.907,42.62 105.664,121.98 109.403,142.57 2.679,14.69 8.836,66 -24.176,108.79 -25.488,33.04 -67.344,52.01 -124.414,56.4 -66.488,5.11 -120.762,-19.42 -148.906,-67.35 -21.735,-37.05 -23.379,-81.51 -4.071,-110.6 17.407,-26.25 44.879,-42.35 77.379,-45.4 31.93,-3.02 63.785,7.41 83.106,27.21 15.39,15.76 18.179,32.86 18.133,43.46 0.179,2.47 0.214,5.98 0.023,10.9 -1.027,26.12 -29.598,47.54 -57.559,32.87 -27.964,-14.7 -15.109,-48.99 6.539,-50.82 21.629,-1.84 19.387,22.66 31.02,20.81 4.012,-0.65 7.035,-2.72 9.355,-5.15 l 0.024,-0.68 c 0.238,-0.98 5.504,-23.98 -14.57,-44.53 -17.309,-17.71 -46.094,-27.05 -75.141,-24.33 -29.488,2.81 -54.391,17.38 -70.117,41.09 -17.012,25.65 -15.215,66.84 4.355,100.19 26.164,44.57 77.071,67.36 139.676,62.53 54.18,-4.17 93.68,-21.86 117.395,-52.6 30.523,-39.57 24.769,-87.33 22.285,-101.05 -4.977,-27.33 -39.696,-163.64 -235.36,-161.95 -183.039,1.6 -263.48,157.36 -264.265,158.93 l -3.653,7.22 -4.726,-6.58 c -15.75,-21.91 -33.656,-34.62 -53.227,-37.77 -26.168,-4.25 -46.715,10.34 -46.906,10.49"
         style="fill:#000000;fill-opacity:1;fill-rule:nonzero;stroke:none"
         transform="matrix(0.13333333,0,0,-0.13333333,0,578.62667)" />
    </g>
  </g>
</svg>
