<?xml version="1.0" encoding="UTF-8" standalone="no"?>
<!-- Created with Inkscape (http://www.inkscape.org/) -->

<svg
   version="1.1"
   id="svg1"
   width="205.79071"
   height="68.855316"
   viewBox="0 0 205.79071 68.855316"
   xmlns="http://www.w3.org/2000/svg"
   xmlns:svg="http://www.w3.org/2000/svg">
  <defs
     id="defs1" />
  <g
     id="g1"
     transform="translate(-692.12397,-363.47937)">
    <g
       id="group-R5">
      <path
         id="path186"
         d="m 6715.05,1517.54 c 0,-21.42 -17.16,-38.81 -38.31,-38.81 -21.17,0 -38.31,17.39 -38.31,38.81 0,21.44 17.14,38.83 38.31,38.83 21.15,0 38.31,-17.39 38.31,-38.83 z m 19.31,12.55 c 0,31.92 -25.05,57.79 -55.93,57.79 -30.88,0 -55.91,-25.87 -55.91,-57.79 0,-31.9 25.03,-57.78 55.91,-57.78 30.88,0 55.93,25.88 55.93,57.78"
         style="fill:#000000;fill-opacity:1;fill-rule:nonzero;stroke:none"
         transform="matrix(0.13333333,0,0,-0.13333333,0,578.62667)" />
      <path
         id="path187"
         d="m 5251.03,1191.34 c 0,-15.11 -12.43,-27.34 -27.75,-27.34 -15.32,0 -27.75,12.23 -27.75,27.34 0,15.15 12.43,27.39 27.75,27.39 15.32,0 27.75,-12.24 27.75,-27.39 z m 22.52,-1.2 c 0,22.08 -18.5,40 -41.31,40 -22.82,0 -41.31,-17.92 -41.31,-40 0,-22.09 18.49,-39.97 41.31,-39.97 22.81,0 41.31,17.88 41.31,39.97"
         style="fill:#000000;fill-opacity:1;fill-rule:nonzero;stroke:none"
         transform="matrix(0.13333333,0,0,-0.13333333,0,578.62667)" />
      <path
         id="path188"
         d="m 6697.1,1419.83 10.09,7.31 -2.38,-12.22 c -38.51,-197.16 -266.99,-239.85 -321.48,-239.85 h -669.81 c -1.19,-12.35 -11.94,-22.1 -25.16,-22.1 -13.23,0 -23.98,9.75 -25.17,22.1 H 5474.1 c -8.32,-2 -17.36,-5.06 -26.01,-9.78 -27.32,-14.91 -40.25,-20.87 -78.52,-23.33 -38.29,-2.52 -55.19,-44.77 -55.19,-44.77 0,0 -13.92,28.36 7.96,45.23 13.78,10.68 19.07,22.32 21.1,29.47 4.68,-9.1 16.11,-15.56 29.52,-15.56 17.56,0 31.81,11.05 31.81,24.71 0,13.62 -14.25,24.68 -31.81,24.68 -14.36,0 -26.36,-7.43 -30.32,-17.56 -2.52,7.19 -8.04,17.43 -20.3,26.91 -21.88,16.91 -7.96,45.24 -7.96,45.24 0,0 16.9,-42.26 55.19,-44.74 38.27,-2.49 51.2,-8.46 78.52,-23.37 5.72,-3.11 11.6,-5.44 17.34,-7.29 h 198.92 c 3.36,9.66 12.78,16.68 24.01,16.68 11.22,0 20.64,-7.02 23.99,-16.68 h 670.98 c 51.83,0 265.42,40 308.96,221.09 -9.69,-4.47 -25.17,-9.34 -43.51,-6.4 -20.34,3.23 -38.73,15.65 -55,36.04 -17.42,-29.72 -101.51,-156.46 -269.38,-157.9 -33.53,-0.3 -62.41,3.4 -87.48,9.8 -6.68,-0.07 -54.63,0.91 -127.72,38.21 -24.53,12.53 -54.62,32.01 -86.5,52.61 -71.01,45.97 -151.51,98.04 -219.98,109.08 -91.24,14.71 -150.53,-7.97 -171.5,-65.61 -10.17,-27.99 -5.86,-59.74 10.99,-80.88 12.55,-15.74 30.05,-23.08 49.3,-20.66 18.87,2.35 32.51,8.86 40.53,19.35 2.48,3.27 4.19,6.64 5.39,9.9 -0.11,12.69 -4.22,12.42 -4.22,12.42 0,0 -7.72,-17.15 -24.58,-10 -16.87,7.15 -19.15,31.16 -4.85,41.18 14.27,10 49.12,4.01 47.45,-24.6 -0.49,-8.28 -1.84,-14.47 -3.53,-19.17 -1.46,-5.06 -3.86,-10.44 -7.86,-15.71 -9.68,-12.64 -25.52,-20.42 -47.1,-23.14 -22.77,-2.86 -43.45,5.77 -58.19,24.29 -18.96,23.76 -23.88,59.25 -12.57,90.39 22.46,61.71 87.2,87.29 182.3,71.93 70.52,-11.35 151.94,-64.04 223.77,-110.5 31.64,-20.47 61.54,-39.82 85.62,-52.1 29.61,-15.14 55.01,-24.03 75.04,-29.35 -85.91,42.62 -105.67,121.98 -109.41,142.57 -2.67,14.69 -8.83,66 24.18,108.79 25.49,33.04 67.35,52.01 124.42,56.4 66.48,5.11 120.76,-19.42 148.89,-67.35 21.74,-37.05 23.38,-81.51 4.08,-110.6 -17.41,-26.25 -44.89,-42.35 -77.39,-45.4 -31.92,-3.02 -63.78,7.41 -83.1,27.21 -15.39,15.76 -18.18,32.86 -18.13,43.46 -0.17,2.47 -0.21,5.98 -0.03,10.9 1.03,26.12 29.6,47.54 57.56,32.87 27.97,-14.7 15.11,-48.99 -6.53,-50.82 -21.63,-1.84 -19.4,22.66 -31.03,20.81 -4,-0.65 -7.03,-2.72 -9.35,-5.15 l -0.02,-0.68 c -0.25,-0.98 -5.5,-23.98 14.57,-44.53 17.3,-17.71 46.09,-27.05 75.13,-24.33 29.5,2.81 54.4,17.38 70.12,41.09 17.01,25.65 15.22,66.84 -4.35,100.19 -26.17,44.57 -77.07,67.36 -139.68,62.53 -54.17,-4.17 -93.67,-21.86 -117.38,-52.6 -30.53,-39.57 -24.78,-87.33 -22.29,-101.05 4.97,-27.33 39.69,-163.64 235.35,-161.95 183.05,1.6 263.49,157.36 264.27,158.93 l 3.65,7.22 4.73,-6.58 c 15.75,-21.91 33.65,-34.62 53.22,-37.77 26.17,-4.25 46.72,10.34 46.91,10.49"
         style="fill:#000000;fill-opacity:1;fill-rule:nonzero;stroke:none"
         transform="matrix(0.13333333,0,0,-0.13333333,0,578.62667)" />
    </g>
  </g>
</svg>
