<?xml version="1.0" encoding="UTF-8" standalone="no"?>
<!-- Created with Inkscape (http://www.inkscape.org/) -->

<svg
   version="1.1"
   id="svg1"
   width="221.84933"
   height="54.418823"
   viewBox="0 0 221.84933 54.418823"
   xmlns="http://www.w3.org/2000/svg"
   xmlns:svg="http://www.w3.org/2000/svg">
  <defs
     id="defs1" />
  <g
     id="g1"
     transform="translate(-344.13334,-413.46933)">
    <g
       id="group-R5">
      <path
         id="path54"
         d="m 3461.31,1089.94 c -15.05,22.57 -30.15,59.33 -35.11,71.89 10.86,4.39 18.47,14.32 18.47,25.96 0,5.73 -1.83,11.07 -5,15.54 26.06,-6.8 53.52,-24.59 75.02,-49.64 2.6,-3.34 4.98,-6.7 7.29,-10.04 -15.61,-20.94 -35.9,-41.59 -60.67,-53.71 z m -39.8,-10.67 c -1.07,8.42 -1.56,16.02 -1.56,22.15 0,26.62 -0.31,47.27 -2.4,58.1 0.8,0.1 1.52,0.34 2.3,0.47 4.2,-11.25 19.16,-50.06 34,-73.36 -10.07,-4.08 -20.88,-6.7 -32.34,-7.36 z m -15.59,22.15 c 0,-6.13 -0.46,-13.73 -1.56,-22.15 -11.46,0.66 -22.24,3.28 -32.32,7.36 15.13,23.76 28.65,63.85 32.11,74.22 1.38,-0.43 2.77,-0.82 4.24,-1.07 -2.11,-10.74 -2.47,-31.53 -2.47,-58.36 z m -41.36,-11.48 c -24.77,12.12 -45.04,32.77 -60.65,53.71 2.29,3.34 4.65,6.7 7.27,10.04 22.13,25.8 50.58,43.87 77.32,50.23 -3.42,-4.59 -5.45,-10.14 -5.45,-16.13 0,-10.39 6.06,-19.46 15.04,-24.44 -3.83,-11.03 -17.87,-49.96 -33.53,-73.41 z m 785.54,124.92 -23.8,23.82 c -12.78,-12.77 -28.03,-19.94 -39.26,-23.82 h -522.83 -2.93 l -1.02,-2.72 c -0.23,-0.62 -11.05,-29.12 -31.91,-59.58 -27.84,36.18 -68.34,59.04 -103.73,61.91 -3.36,1.15 -6.98,1.8 -10.75,1.8 -3.63,0 -7.13,-0.61 -10.35,-1.69 -35.94,-2.05 -77.58,-25.09 -105.97,-62.02 -20.86,30.46 -31.7,58.96 -31.92,59.58 l -1.03,2.72 h -2.91 -522.86 c -11.23,3.88 -26.48,11.05 -39.23,23.82 l -23.81,-23.82 H 2581 v -8.4 c 0,0 36.84,0 93.34,0 l 28.05,-24.74 c 0,0 11.89,16.59 33.75,24.74 198.85,0 518.75,0 522.67,0 3.36,-8.44 14.44,-34.4 33.21,-61.35 -10.04,-14.65 -18.03,-31.21 -22.87,-49.3 -21.49,22.43 -43.28,42.03 -133.52,42.03 h -222.79 c -38.17,-0.97 -70.29,-13.88 -81.53,-32.37 -0.41,-0.12 -0.82,-0.18 -1.25,-0.33 -16.64,-28.78 1.02,-53.53 21.72,-55.52 12.05,-1.18 30.26,4.03 32.29,20.69 2.56,21.05 -12.13,27.75 -21.7,28.25 -7.72,0.38 -18.67,-3.02 -20.68,-14.13 -5.77,-1.8 -5.88,6.19 -5.04,12.88 0.23,0.65 0.47,1.32 0.76,1.94 8.3,16.85 39.39,29.24 75.53,30.2 h 222.69 c 116.37,0 136.19,-61.14 136.33,-61.63 0,0 4.84,32.29 26.85,67.97 15.73,-20.64 36,-40.74 60.83,-53.01 -14.22,-20.13 -32.5,-40.95 -54.07,-54.64 -36.95,-23.48 -88.1,-29.101 -116.99,-15.06 -13.36,6.48 -17.36,17.99 -14.94,30.32 0.45,0.73 0.96,1.46 1.6,2.18 6.04,-11.11 12.09,-17.17 28.75,-17.17 16.66,0 27.25,15.66 26.23,29.28 -1,13.62 -13.1,24.22 -37.34,23.21 -24.22,-1 -37.83,-19.66 -36.33,-38.88 1.09,-13.67 8.57,-22.44 12.79,-26.36 4.22,-4.61 9.49,-8.52 15.8,-11.59 31.78,-15.461 85.75,-8.019 125.57,17.27 23.3,14.79 42.23,36.9 56.5,57.98 11.12,-4.62 23.09,-7.63 35.9,-8.43 -7.67,-45.98 -32.44,-108.788 -91.01,-103.218 5.6,-23.113 28,-34.34 41.3,-34.34 13.32,0 37.13,22.438 44.83,67.948 0,0 -9.1,6.32 -4.9,19.59 4.2,13.32 19.61,11.94 19.61,11.94 0,0 15.41,1.38 19.61,-11.94 4.19,-13.27 -4.91,-19.59 -4.91,-19.59 7.7,-45.51 31.51,-67.948 44.83,-67.948 13.3,0 35.7,11.227 41.31,34.34 -58.56,-5.57 -83.34,57.238 -91.02,103.218 12.83,0.8 24.79,3.81 35.9,8.43 14.3,-21.08 33.2,-43.19 56.52,-57.98 39.81,-25.289 93.79,-32.731 125.55,-17.27 6.31,3.07 11.58,6.98 15.82,11.59 4.22,3.92 11.7,12.69 12.77,26.36 1.51,19.22 -12.11,37.88 -36.33,38.88 -24.21,1.01 -36.32,-9.59 -37.34,-23.21 -1,-13.62 9.59,-29.28 26.23,-29.28 16.66,0 22.72,6.06 28.79,17.17 0.61,-0.72 1.11,-1.45 1.58,-2.18 2.42,-12.33 -1.58,-23.84 -14.96,-30.32 -28.89,-14.041 -80.04,-8.42 -116.97,15.06 -21.56,13.69 -39.86,34.51 -54.06,54.64 24.8,12.27 45.07,32.37 60.82,53.01 21.99,-35.68 26.85,-67.97 26.85,-67.97 0.12,0.49 19.94,61.63 136.31,61.63 h 222.7 c 36.13,-0.96 67.24,-13.35 75.5,-30.2 0.34,-0.62 0.55,-1.29 0.8,-1.94 0.82,-6.69 0.73,-14.68 -5.03,-12.88 -2.04,11.11 -12.99,14.51 -20.71,14.13 -9.59,-0.5 -24.26,-7.2 -21.7,-28.25 2.03,-16.66 20.26,-21.87 32.31,-20.69 20.7,1.99 38.34,26.74 21.7,55.52 -0.43,0.15 -0.84,0.21 -1.25,0.33 -11.23,18.49 -43.34,31.4 -81.51,32.37 h -222.81 c -90.21,0 -112.03,-19.6 -133.52,-42.03 -4.84,18.09 -12.81,34.65 -22.89,49.3 18.79,26.95 29.89,52.91 33.25,61.35 3.92,0 323.81,0 522.67,0 21.84,-8.15 33.75,-24.74 33.75,-24.74 l 28.03,24.74 c 56.5,0 93.34,0 93.34,0 v 8.4 h -94.77"
         style="fill:#000000;fill-opacity:1;fill-rule:nonzero;stroke:none"
         transform="matrix(0.13333333,0,0,-0.13333333,0,578.62667)" />
      <path
         id="path55"
         d="m 3392.41,918.121 c 3.73,-33.851 10.43,-61.851 20.53,-87.582 10.09,25.731 16.81,53.731 20.52,87.582 -2.22,17.617 -20.52,63.199 -20.52,63.199 0,0 -18.3,-45.582 -20.53,-63.199"
         style="fill:#000000;fill-opacity:1;fill-rule:nonzero;stroke:none"
         transform="matrix(0.13333333,0,0,-0.13333333,0,578.62667)" />
    </g>
  </g>
</svg>
