<?xml version="1.0" encoding="UTF-8" standalone="no"?>
<!-- Created with Inkscape (http://www.inkscape.org/) -->

<svg
   version="1.1"
   id="svg1"
   width="454.13199"
   height="77.259857"
   viewBox="0 0 454.13199 77.259857"
   xmlns="http://www.w3.org/2000/svg"
   xmlns:svg="http://www.w3.org/2000/svg">
  <defs
     id="defs1" />
  <g
     id="g1"
     transform="translate(-228.76132,-501.36679)">
    <g
       id="group-R5">
      <path
         id="path182"
         d="m 3374.69,521.488 c 10.46,-4.918 30.37,-17.097 45.56,-43.129 V 375.871 h -39.7 c -8.73,44.801 -38.62,116.34 -138.94,145.617 58.57,0 104.47,0 133.08,0 z m 54.65,-43.269 c 14.7,24.922 37.04,37.98 48.23,43.269 28.58,0 68.91,0 118.23,0 -100.32,-29.277 -130.22,-100.816 -138.91,-145.617 h -27.55 c 0,40.777 0,76.481 0,102.348 z m -1543.98,41.59 c 17.84,-7.039 45.82,-19.758 62.11,-45.2 17.55,26.321 42.46,40.18 58.83,46.879 22.04,0 45,0 68.75,0 -30.05,-12.418 -41.22,-49.847 -27.82,-73.039 15.13,-26.211 52.07,-21.179 60.46,-5.027 13.11,25.168 -11.12,49.348 -38.28,27.199 8.03,-3.031 11.08,-14.133 1.99,-17.152 -5.8,-1.918 -30.21,8.082 -13.08,41.34 8.25,16.031 26.14,23.371 42.45,26.679 10.07,0 20.21,0 30.48,0 17.81,-7.047 45.82,-21.437 62.11,-46.879 17.52,26.321 42.43,40.18 58.8,46.879 227,0 488.48,0 705.23,0 1.29,-12.148 11.45,-21.66 23.96,-21.66 12.5,0 22.65,9.512 23.93,21.66 57.62,0 111.43,0 159.75,0 l -0.09,-1.496 c 1.43,-0.082 141.07,-10.453 162.84,-135.992 4.9,-31.219 -5.64,-66.051 -28.16,-93.211 -21.7,-26.199 -51.26,-41.141 -83.1,-42.129 -32.4,-0.961 -60.87,11.231 -80.18,34.32 -18.24,21.809 -25.86,50.461 -20.31,76.61 5.36,25.308 18.79,45.172 37.88,55.961 19.21,10.828 42.46,12.019 67.29,3.398 27.84,-9.64 37.12,-37.008 33.97,-59.808 -1.73,-12.602 -7.83,-25.571 -17.86,-30.903 -7.76,-1.379 -18.66,-1.816 -20.39,6.582 -1.37,8.09 6.77,11.45 13.84,11.789 7.2,5.903 -1.83,29.77 -25.14,25.75 -23.26,-4.019 -24.1,-30.05 -18.05,-41.929 7.54,-14.782 35.81,-24.469 55.27,-9.371 10.96,6.519 18.98,19.812 21.31,36.82 3.68,26.492 -7.27,58.301 -39.98,69.641 -26.96,9.378 -53.49,7.91 -74.73,-4.079 -21.35,-12.089 -36.38,-34.109 -42.29,-61.98 -6.1,-28.852 2.23,-60.352 22.25,-84.301 21.12,-25.289 52.17,-38.609 87.36,-37.558 34.52,1.058 66.44,17.16 89.85,45.41 24.14,29.097 35.42,66.636 30.14,100.468 -14.64,84.2 -78.96,119.25 -124.43,133.711 144.95,-27.64 161.11,-137.75 162.55,-171.711 2.68,-63.609 -42.98,-161.351 -149,-173.949 -1.28,12.028 -4.88,21.16 -8.66,20.93 -3.81,-0.231 -6.39,-9.84 -6.2,-22.102 -33.03,-1.418 -65.08,5.172 -93.99,19.141 l 0.06,0.141 c -0.09,0.05 -1.55,0.66 -4.1,1.828 -14.5,7.441 -28.19,16.73 -40.72,27.832 -35,30.929 -56.73,72.578 -58.18,111.418 -2.89,78.211 52.08,121.781 52.66,122.203 l 10.48,8.117 h -129.61 c 14.22,-5.758 24.28,-19.73 24.28,-36.019 0,-21.5 -17.45,-38.911 -38.91,-38.911 -21.52,0 -38.91,17.411 -38.91,38.911 0,16.289 10.06,30.261 24.28,36.019 h -9.54 c -2.92,0.043 -291.74,1.02 -421.26,0 -105.86,-0.801 -140.96,-9.867 -153.6,-27.328 -21.6,-25.922 -8.59,-50.16 2.47,-56.402 11.19,-6.309 36.44,-5.809 40.83,16.543 4.36,22.359 -18.47,31.57 -24.3,24.789 -0.5,-6.821 -3.89,-14.582 -11.69,-13.129 -1.56,0.367 -2.82,1.066 -3.79,2.008 -1.08,3.652 -1.31,8.121 0.27,13.429 4.78,15.801 19.81,30.031 149.88,31.031 15.9,0.11 34.21,0.231 54.1,0.29 v -0.032 c 1.24,-0.008 125.64,-1.066 204.85,-28.476 77.19,-26.692 146.84,-70.614 213,-134.282 68.94,-66.359 131.84,-98.031 149.28,-106.101 11.67,-5.969 23.86,-10.688 36.44,-14.309 -19.41,2.2 -40.87,6.289 -64.16,13.16 -47.39,14.008 -104.22,43.7 -164.36,75.192 -82.26,43 -167.31,87.5 -239.85,98.008 -77.29,11.23 -138.54,-1.18 -163.92,-33.239 l -1.02,-1.461 c -22.13,-26.808 -8.6,-51.73 2.81,-58.199 11.58,-6.551 37.8,-6.051 42.3,17.129 4.57,23.192 -19.13,32.77 -25.2,25.719 -0.5,-7.07 -4.02,-15.129 -12.05,-13.629 -5.05,1.18 -6.79,5.609 -7.05,10.621 1.34,4.91 3.76,9.668 7.33,14.199 18.03,22.758 68.31,42.59 155.49,29.91 70.99,-10.32 155.35,-54.449 236.95,-97.109 60.57,-31.672 117.79,-61.59 166,-75.812 55.99,-16.547 101.41,-17.688 133.41,-14.469 1.53,-9.988 4.79,-17.121 8.13,-16.93 3.47,0.219 5.88,8.149 6.19,18.731 23.57,3.691 37,9.281 38.23,9.808 l -0.1,0.231 c 78.92,26.98 116.44,103.75 119.41,161.851 h 36.42 V 296.91 c -14.51,-2.211 -25.68,-14.629 -25.68,-29.781 0,-15.149 11.17,-27.57 25.68,-29.77 v -25.89 c -28.4,-40.598 -69.03,-50.719 -69.03,-50.719 0,0 40.63,-10.109 69.03,-50.719 V 0 h 9.09 c 0,27.832 0,63.8203 0,103.891 26.03,42.468 76.09,56.859 76.09,56.859 0,0 -50.06,14.398 -76.09,56.852 0,6.589 0,13.179 0,19.757 14.5,2.2 25.66,14.621 25.66,29.77 0,15.152 -11.16,27.57 -25.66,29.781 0,12.828 0,25.5 0,37.871 h 24.27 c 2.95,-58.101 40.47,-134.871 119.41,-161.851 l -0.09,-0.231 c 1.23,-0.527 14.62,-6.117 38.22,-9.808 0.29,-10.582 2.73,-18.512 6.19,-18.731 3.34,-0.191 6.58,6.942 8.14,16.93 31.96,-3.219 77.41,-2.078 133.4,14.469 48.21,14.222 105.41,44.14 165.96,75.812 81.62,42.66 165.98,86.789 236.97,97.109 87.19,12.68 137.48,-7.152 155.49,-29.91 3.58,-4.531 5.98,-9.289 7.33,-14.199 -0.24,-5.012 -2,-9.441 -7.04,-10.621 -8.04,-1.5 -11.58,6.559 -12.09,13.629 -6.05,7.051 -29.72,-2.527 -25.19,-25.719 4.53,-23.18 30.74,-23.68 42.32,-17.129 11.43,6.469 24.92,31.391 2.8,58.199 l -1.02,1.461 c -25.33,32.059 -86.62,44.469 -163.93,33.239 -72.5,-10.508 -157.55,-55.008 -239.8,-98.008 -60.18,-31.492 -117.01,-61.184 -164.38,-75.192 -23.3,-6.871 -44.76,-10.96 -64.17,-13.16 12.57,3.621 24.8,8.34 36.46,14.309 17.42,8.07 80.31,39.742 149.28,106.101 66.13,63.668 135.78,107.59 212.97,134.282 79.23,27.41 203.63,28.468 204.86,28.476 v 0.032 c 19.9,-0.059 38.22,-0.18 54.12,-0.29 130.08,-1 145.1,-15.23 149.84,-31.031 1.63,-5.308 1.35,-9.777 0.28,-13.429 -0.96,-0.942 -2.21,-1.641 -3.79,-2.008 -7.79,-1.453 -11.17,6.308 -11.66,13.129 -5.84,6.781 -28.65,-2.43 -24.32,-24.789 4.38,-22.352 29.63,-22.852 40.84,-16.543 11.02,6.242 24.06,30.48 2.46,56.402 -12.63,17.461 -47.71,26.527 -153.59,27.328 -129.53,1.02 -418.36,0.043 -421.25,0 h -9.53 c 14.22,-5.758 24.24,-19.73 24.24,-36.019 0,-21.5 -17.39,-38.911 -38.91,-38.911 -21.46,0 -38.89,17.411 -38.89,38.911 0,16.289 10.04,30.261 24.28,36.019 h -129.63 l 10.49,-8.117 c 0.53,-0.422 55.55,-43.992 52.66,-122.203 -1.43,-38.84 -23.19,-80.489 -58.19,-111.418 -12.52,-11.102 -26.21,-20.391 -40.68,-27.832 -2.58,-1.168 -4.02,-1.778 -4.14,-1.828 l 0.06,-0.141 c -28.91,-13.969 -60.96,-20.559 -93.99,-19.141 0.2,12.262 -2.38,21.871 -6.19,22.102 -3.75,0.23 -7.38,-8.902 -8.65,-20.93 -106.04,12.598 -151.66,110.34 -148.99,173.949 1.41,33.961 17.58,144.071 162.52,171.711 -45.46,-14.461 -109.78,-49.511 -124.43,-133.711 -5.27,-33.832 6,-71.371 30.14,-100.468 23.43,-28.25 55.33,-44.352 89.86,-45.41 35.2,-1.051 66.23,12.269 87.38,37.558 20.02,23.949 28.32,55.449 22.23,84.301 -5.92,27.871 -20.94,49.891 -42.27,61.98 -21.27,11.989 -47.77,13.457 -74.72,4.079 -32.72,-11.34 -43.69,-43.149 -40.02,-69.641 2.36,-17.008 10.37,-30.301 21.31,-36.82 19.49,-15.098 47.77,-5.411 55.31,9.371 6.03,11.879 5.17,37.91 -18.09,41.929 -23.28,4.02 -32.3,-19.847 -25.11,-25.75 7.05,-0.339 15.15,-3.699 13.82,-11.789 -1.73,-8.398 -12.63,-7.961 -20.37,-6.582 -10.08,5.332 -16.13,18.301 -17.89,30.903 -3.12,22.8 6.15,50.168 34.01,59.808 24.8,8.621 48.04,7.43 67.24,-3.398 19.1,-10.789 32.56,-30.653 37.93,-55.961 5.53,-26.149 -2.09,-54.801 -20.35,-76.61 -19.3,-23.089 -47.75,-35.281 -80.18,-34.32 -31.83,0.988 -61.36,15.93 -83.1,42.129 -22.54,27.16 -33.05,61.992 -28.15,93.211 21.8,125.539 161.41,135.91 162.84,135.992 l -0.12,1.496 c 48.34,0 102.15,0 159.77,0 1.28,-12.148 11.46,-21.66 23.96,-21.66 12.48,0 22.62,9.512 23.91,21.66 216.81,0 478.28,0 705.27,0 16.35,-6.699 41.29,-20.558 58.81,-46.879 16.29,25.442 44.3,39.832 62.09,46.879 10.29,0 20.43,0 30.47,0 16.31,-3.308 34.2,-10.648 42.46,-26.679 17.13,-33.258 -7.29,-43.258 -13.09,-41.34 -9.06,3.019 -6.05,14.121 1.99,17.152 -27.18,22.149 -51.38,-2.031 -38.28,-27.199 8.42,-16.152 45.35,-21.184 60.47,5.027 13.4,23.192 2.23,60.621 -27.83,73.039 23.75,0 46.72,0 68.77,0 16.37,-6.699 41.29,-20.558 58.81,-46.879 16.29,25.442 44.29,38.172 62.11,45.211 104.61,0 169.65,0 169.65,0 v 10.75 h -410.18 c -16.99,6.071 -49.41,20.75 -67.44,48.879 -19.51,-29.301 -48.2,-43.148 -64.03,-48.879 h -700.82 c -2.85,10.149 -12.09,17.629 -23.14,17.629 -11.09,0 -20.31,-7.48 -23.16,-17.629 h -361.68 c -13.6,7.481 -34.3,22.442 -46.41,48.43 -13.05,-26.949 -31.53,-41.301 -43.93,-48.43 h -376.39 c -2.89,10.149 -12.11,17.629 -23.17,17.629 -11.09,0 -20.31,-7.48 -23.17,-17.629 h -700.79 c -15.84,5.731 -44.51,19.578 -64.03,48.879 -18.08,-28.129 -50.44,-42.808 -67.47,-48.879 h -410.18 v -10.761 c 0,0 65.06,0 169.65,0"
         style="fill:#000000;fill-opacity:1;fill-rule:nonzero;stroke:none"
         transform="matrix(0.13333333,0,0,-0.13333333,0,578.62667)" />
    </g>
  </g>
</svg>
